<svg xmlns="http://www.w3.org/2000/svg" viewBox="0 0 413.45 57.04"><defs><style>.cls-1{fill:#fff;}</style></defs><g id="Layer_2" data-name="Layer 2"><g id="Layer_1-2" data-name="Layer 1"><path class="cls-1" d="M152.15.88H132.87V56.14h19.28c17.2,0,28.76-11.26,28.76-28C180.91,12.09,169.08.88,152.15.88Zm0,47.59H140.76v-40h11.39c12.24,0,20.79,8.09,20.79,19.66C172.94,40.11,164.39,48.47,152.15,48.47Z"/><path class="cls-1" d="M107.83,32.72c0,9.81-6.41,16.65-15.6,16.65S76.71,42.53,76.71,32.72V.88h-7.9V32.72C68.81,47,78.44,57,92.23,57s23.49-10,23.49-24.32V.88h-7.89Z"/><polygon class="cls-1" points="364.76 0.89 364.76 8.47 385.19 8.47 385.19 56.14 393.09 56.14 393.09 8.47 413.45 8.47 413.45 0.89 364.76 0.89"/><polygon class="cls-1" points="338.24 38.48 296.6 0 296.6 56.14 304.49 56.14 304.49 18.52 346.13 57.02 346.13 0.89 338.24 0.89 338.24 38.48"/><polygon class="cls-1" points="231.84 56.14 274.93 56.14 274.93 48.47 239.73 48.47 239.73 32.38 271.92 32.38 271.92 24.79 239.73 24.79 239.73 8.47 274.93 8.47 274.93 0.89 231.84 0.89 231.84 56.14"/><path class="cls-1" d="M0,56.1H8.32l.56-1.05a20.22,20.22,0,0,1,12.55-9.13,29.93,29.93,0,0,1,14.57,0A20.29,20.29,0,0,1,48.55,55l.54,1.07h8.35L28.72.2ZM40.44,39.49a40,40,0,0,0-11.72-1.87A40,40,0,0,0,17,39.49L28.72,16.2Z"/><rect class="cls-1" x="201.4" y="0.88" width="7.89" height="55.25"/></g></g></svg>