<svg xmlns="http://www.w3.org/2000/svg" width="276.294" height="84.883" viewBox="0 0 276.294 84.883"><g id="Group_5889" data-name="Group 5889" transform="translate(1958.225 22746.59)"><path id="Path_1" data-name="Path 1" d="M597.7,23.43l27.283,43.328L652.258,23.43h22.778l-50.054,81.293L574.93,23.43Z" transform="translate(-2445.072 -22766.43)"></path><path id="Path_2" data-name="Path 2" d="M1291.848,0a42.438,42.438,0,1,0,42.438,42.438h0A42.434,42.434,0,0,0,1291.848,0Zm0,67.775a25.336,25.336,0,1,1,25.328-25.334v0a25.329,25.329,0,0,1-25.326,25.334Z" transform="translate(-3016.217 -22746.59)"></path><path id="Path_3" data-name="Path 3" d="M51.555,52.623H83.623A42.428,42.428,0,1,0,73.211,71.646L60.319,60.318a25.279,25.279,0,1,1,6.173-25.576h-35.3Z" transform="translate(-1958.225 -22746.615)"></path></g></svg>